<svg xmlns="http://www.w3.org/2000/svg" viewBox="0 0 400 250" width="400" height="250"><g style="fill:#fff" transform="translate(-167.73 -419.498)"><rect width="400" height="250" x="167.73" y="419.498" rx="20" ry="20" style="fill:#333;fill-opacity:1"/><path d="m201.404 566.074 16.037-19.674-16.368-20.006h9.92l16.038 19.84-16.038 19.84z" aria-label="›"/><path d="M245.961 584.261v-8.101h11.078q4.546 0 7.11-2.563 2.644-2.563 2.644-7.11v-34.471h-21.245v-8.102h30.173v42.656q0 8.184-4.96 12.896-4.96 4.795-13.392 4.795zm24.552-68.2q-2.893 0-4.629-1.488-1.736-1.57-1.736-4.133 0-2.646 1.736-4.134 1.736-1.57 4.63-1.57 2.893 0 4.629 1.57 1.736 1.488 1.736 4.134 0 2.562-1.736 4.133-1.736 1.488-4.63 1.488z" aria-label="j"/><path d="M308.706 570.208q-6.944 0-11.078-3.886-4.05-3.968-4.05-10.333 0-6.448 4.38-10.333 4.382-3.968 11.657-3.968h12.565v-3.307q0-7.853-8.845-7.853-3.968 0-6.365 1.488-2.398 1.488-2.563 4.133h-8.763q.414-5.704 5.126-9.341 4.712-3.72 12.648-3.72 8.432 0 13.06 4.05 4.63 3.968 4.63 11.16v31.083h-8.762v-8.515h-.083q-.579 4.382-4.134 6.862-3.554 2.48-9.424 2.48zm2.562-7.358q5.043 0 7.936-2.397 2.976-2.48 2.976-6.613v-5.87h-11.904q-3.554 0-5.704 2.067-2.066 2.067-2.066 5.29 0 3.473 2.314 5.54 2.315 1.983 6.448 1.983z" aria-label="a"/><path d="m357.148 569.381-15.376-45.467h9.424l9.342 29.1q.826 2.562 1.488 5.124.66 2.48.992 4.134l.826-4.134q.579-2.562 1.406-5.125l9.258-29.099h9.424l-15.293 45.467Z" aria-label="v"/><path d="M392.034 569.381v-45.467h7.605v6.366h.165q.331-3.224 2.398-5.208 2.066-1.984 5.208-1.984 2.976 0 5.042 1.901 2.15 1.819 2.976 4.96.496-3.141 2.563-4.96 2.067-1.901 5.29-1.901 4.217 0 6.862 3.306 2.728 3.224 2.728 8.35v34.637h-8.101v-34.224q0-2.48-1.158-3.885-1.157-1.488-3.224-1.488-2.066 0-3.224 1.405-1.074 1.405-1.074 3.885v34.307h-7.275v-34.224q0-2.48-1.157-3.885-1.075-1.488-3.142-1.488-2.066 0-3.224 1.405-1.157 1.405-1.157 3.885v34.307z" aria-label="m"/><path d="m509.255 566.074 15.293-19.922-15.293-19.758h9.92l15.21 19.84-15.21 19.84zm-19.84 0 15.293-19.922-15.376-19.758h9.92l15.128 19.84-15.128 19.84z" aria-label="»" style="fill:#f26c0d"/><rect width="25" height="25" x="197.73" y="449.498" rx="8" ry="8" style="fill:#f26c0d;fill-opacity:1"/></g></svg>